{
  "accessors": [
    {
      "bufferView": 2,
      "componentType": 5126,
      "count": 242,
      "max": [
        15.583883285522461,
        14.936723709106445,
        2.0551490783691406
      ],
      "min": [
        -14.861433029174805,
        -15.605016708374023,
        0.1768680065870285
      ],
      "type": "VEC3"
    },
    {
      "bufferView": 2,
      "byteOffset": 2904,
      "componentType": 5126,
      "count": 242,
      "max": [
        0.99974602460861206,
        0.99695134162902832,
        1
      ],
      "min": [
        -0.99999266862869263,
        -0.99590200185775757,
        -1
      ],
      "type": "VEC3"
    },
    {
      "bufferView": 3,
      "componentType": 5126,
      "count": 242,
      "max": [
        1,
        0.99490815401077271,
        0.99990642070770264,
        1
      ],
      "min": [
        -0.9912448525428772,
        -0.99512803554534912,
        -0.9999125599861145,
        -1
      ],
      "type": "VEC4"
    },
    {
      "bufferView": 1,
      "componentType": 5126,
      "count": 242,
      "max": [
        0.96061098575592041,
        0.9417719841003418
      ],
      "min": [
        0.027325000613927841,
        0.12850399315357208
      ],
      "type": "VEC2"
    },
    {
      "bufferView": 0,
      "componentType": 5125,
      "count": 1200,
      "max": [
        241
      ],
      "min": [
        0
      ],
      "type": "SCALAR"
    }
  ],
  "asset": {
    "extras": {
      "author": "Musée Saint-Raymond (https://sketchfab.com/museesaintraymond)",
      "license": "CC0-1.0 (http://creativecommons.org/publicdomain/zero/1.0/)",
      "source": "https://sketchfab.com/3d-models/aureus-de-caligula-d484dc681b8a46b0969287f5e89b488d",
      "title": "Aureus de Caligula"
    },
    "generator": "Sketchfab-7.80.0",
    "version": "2.0"
  },
  "bufferViews": [
    {
      "buffer": 0,
      "byteLength": 4800,
      "byteOffset": 0,
      "name": "floatBufferViews",
      "target": 34963
    },
    {
      "buffer": 0,
      "byteLength": 1936,
      "byteOffset": 4800,
      "byteStride": 8,
      "name": "floatBufferViews",
      "target": 34962
    },
    {
      "buffer": 0,
      "byteLength": 5808,
      "byteOffset": 6736,
      "byteStride": 12,
      "name": "floatBufferViews",
      "target": 34962
    },
    {
      "buffer": 0,
      "byteLength": 3872,
      "byteOffset": 12544,
      "byteStride": 16,
      "name": "floatBufferViews",
      "target": 34962
    }
  ],
  "buffers": [
    {
      "byteLength": 16416,
      "uri": "scene.bin"
    }
  ],
  "images": [
    {
      "uri": "textures/material_0_baseColor.jpeg"
    },
    {
      "uri": "textures/material_0_normal.png"
    }
  ],
  "materials": [
    {
      "doubleSided": true,
      "emissiveFactor": [
        0,
        0,
        0
      ],
      "name": "material_0",
      "normalTexture": {
        "index": 1,
        "scale": 0.25,
        "texCoord": 0
      },
      "pbrMetallicRoughness": {
        "baseColorFactor": [
          1,
          1,
          1,
          1
        ],
        "baseColorTexture": {
          "index": 0,
          "texCoord": 0
        },
        "metallicFactor": 0,
        "roughnessFactor": 0.59999999999999998
      }
    }
  ],
  "meshes": [
    {
      "primitives": [
        {
          "attributes": {
            "NORMAL": 1,
            "POSITION": 0,
            "TANGENT": 2,
            "TEXCOORD_0": 3
          },
          "indices": 4,
          "material": 0,
          "mode": 4
        }
      ]
    }
  ],
  "nodes": [
    {
      "children": [
        1
      ],
      "name": "RootNode (gltf orientation matrix)",
      "rotation": [
        -0.70710678118654746,
        -0,
        -0,
        0.70710678118654757
      ]
    },
    {
      "children": [
        2
      ],
      "matrix": [
        1,
        0,
        0,
        0,
        0,
        0.020677588880062103,
        0.99978619813919067,
        0,
        0,
        -0.99978619813919067,
        0.020677588880062103,
        0,
        0,
        0.78850430250167847,
        1.4270353317260742,
        1
      ],
      "name": "RootNode (model correction matrix)"
    },
    {
      "children": [
        3
      ],
      "name": "11bcb57321384380aba45780bf0f6597.obj.cleaner.materialmerger.gles"
    },
    {
      "mesh": 0,
      "name": ""
    }
  ],
  "samplers": [
    {
      "magFilter": 9729,
      "minFilter": 9987,
      "wrapS": 10497,
      "wrapT": 10497
    }
  ],
  "scene": 0,
  "scenes": [
    {
      "name": "OSG_Scene",
      "nodes": [
        0
      ]
    }
  ],
  "textures": [
    {
      "sampler": 0,
      "source": 0
    },
    {
      "sampler": 0,
      "source": 1
    }
  ]
}

